<svg xmlns="http://www.w3.org/2000/svg" xmlns:xlink="http://www.w3.org/1999/xlink" width="500" zoomAndPan="magnify" viewBox="0 0 375 374.999991" height="500" preserveAspectRatio="xMidYMid meet" version="1.0"><defs><g/><clipPath id="0ad00b4430"><path d="M 226 1 L 351 1 L 351 102 L 226 102 Z M 226 1 " clip-rule="nonzero"/></clipPath><clipPath id="16b19c2e92"><path d="M 228.953125 -4.414062 L 352.796875 8.339844 L 343.113281 102.34375 L 219.269531 89.585938 Z M 228.953125 -4.414062 " clip-rule="nonzero"/></clipPath><clipPath id="a9d5e23a90"><path d="M 228.953125 -4.414062 L 352.796875 8.339844 L 343.113281 102.34375 L 219.269531 89.585938 Z M 228.953125 -4.414062 " clip-rule="nonzero"/></clipPath></defs><path fill="#ff7f30" d="M 362.121094 233.703125 L 355.128906 255.714844 C 336.605469 298.996094 305.386719 329.679688 261.46875 347.773438 C 217.296875 365.78125 170.28125 366.117188 120.414062 348.773438 C 73.371094 329.960938 39.378906 299.726562 18.441406 258.074219 C 11.757812 244.628906 6.964844 230.574219 4.066406 215.914062 L 1.296875 193.714844 C 0.453125 178.691406 1.832031 163.554688 5.433594 148.304688 C 17.90625 101.847656 44.632812 67.109375 85.613281 44.089844 C 126.597656 21.070312 172.492188 15.019531 223.296875 25.933594 C 273.539062 39.210938 311.714844 65.390625 337.828125 104.476562 C 363.945312 143.558594 372.039062 186.636719 362.121094 233.703125 " fill-opacity="1" fill-rule="nonzero"/><g clip-path="url(#0ad00b4430)"><g clip-path="url(#16b19c2e92)"><g clip-path="url(#a9d5e23a90)"><path fill="#1e1e1e" d="M 239.625 90.089844 C 241.789062 89.882812 246.113281 89.421875 250.476562 89.15625 C 254.835938 88.886719 259.238281 88.8125 263.683594 88.933594 C 268.132812 89.054688 272.621094 89.363281 275.984375 89.730469 C 279.34375 90.09375 281.5625 90.386719 283.710938 90.710938 C 285.863281 91.035156 287.941406 91.386719 289.957031 91.765625 C 291.96875 92.144531 293.914062 92.546875 296.285156 93.0625 C 298.652344 93.582031 301.496094 94.242188 304.421875 94.964844 C 307.34375 95.691406 310.355469 96.480469 313.445312 97.351562 C 316.539062 98.21875 319.710938 99.164062 322.171875 99.855469 C 324.632812 100.542969 325.746094 100.761719 326.769531 100.914062 C 327.792969 101.070312 328.824219 101.148438 330.296875 100.996094 C 331.769531 100.84375 334.757812 99.253906 336.046875 94.023438 C 337.335938 88.792969 337.785156 83.542969 338.929688 77.261719 C 340.078125 70.980469 341.808594 63.671875 344.191406 55.363281 C 346.574219 47.054688 349.648438 37.773438 350.320312 29.230469 C 350.996094 20.6875 346.609375 19.757812 345.144531 20.414062 C 343.679688 21.070312 342.992188 21.636719 342.394531 22.234375 C 341.792969 22.828125 341.175781 23.511719 340.222656 24.609375 C 339.273438 25.707031 337.582031 27.695312 335.289062 30.410156 C 333 33.125 330.097656 36.566406 326.601562 40.757812 C 323.105469 44.949219 318.96875 49.851562 316.5625 52.730469 C 314.15625 55.605469 313.929688 55.847656 313.859375 55.921875 C 313.789062 55.996094 313.949219 55.925781 314.449219 55.828125 C 314.953125 55.726562 315.808594 55.550781 316.085938 55.625 C 316.363281 55.703125 316.28125 55.613281 315.867188 55.136719 C 315.453125 54.65625 314.839844 53.800781 314.105469 52.601562 C 313.367188 51.398438 312.535156 49.867188 311.816406 48.417969 C 311.09375 46.96875 310.25 45.027344 308.941406 41.835938 C 307.628906 38.644531 305.921875 34.230469 303.800781 28.617188 C 301.675781 23.007812 299.136719 16.207031 297.550781 11.96875 C 295.960938 7.726562 295.597656 6.957031 295.144531 6.1875 C 294.6875 5.417969 294.074219 4.617188 293.140625 3.792969 C 292.207031 2.96875 290.773438 2.234375 289.464844 1.957031 C 288.15625 1.679688 285.441406 2.117188 283.902344 3.144531 C 282.367188 4.167969 281.554688 5.132812 280.992188 6.03125 C 280.429688 6.925781 279.96875 7.824219 275.878906 17.835938 C 271.789062 27.851562 264.609375 46.9375 264.351562 47.570312 C 264.089844 48.199219 263.855469 48.726562 263.691406 49.0625 C 263.53125 49.398438 263.476562 49.503906 263.664062 49.292969 C 263.847656 49.078125 269.910156 47.207031 269.761719 47.003906 C 269.613281 46.804688 267.375 45.195312 263.921875 42.367188 C 260.46875 39.535156 255.910156 35.574219 250.292969 30.507812 C 244.671875 25.441406 237.953125 19.273438 237.164062 18.671875 C 236.371094 18.070312 235.480469 17.597656 234.207031 17.269531 C 232.9375 16.945312 231.253906 17.058594 229.703125 17.84375 C 228.152344 18.628906 226.128906 22.945312 226.554688 26.953125 C 226.980469 30.957031 227.976562 35.757812 229.507812 41.4375 C 231.039062 47.121094 233.113281 53.71875 235.191406 59.027344 C 237.269531 64.332031 243.800781 62.449219 242.753906 58.828125 C 242.753906 58.828125 241.679688 51.332031 240.394531 45.128906 C 239.109375 38.929688 238.261719 33.816406 237.878906 29.851562 C 237.496094 25.882812 237.542969 23.132812 236.152344 25.488281 C 234.761719 27.84375 233.4375 28.308594 232.324219 28.273438 C 231.210938 28.242188 230.582031 28.019531 230.324219 27.882812 C 230.066406 27.742188 229.828125 27.546875 235.789062 33.828125 C 241.753906 40.113281 246.839844 45.25 251.046875 49.257812 C 255.25 53.269531 258.617188 56.1875 261.433594 58.171875 C 264.246094 60.15625 267.597656 61.300781 271.238281 59.722656 C 274.878906 58.144531 275.464844 57.328125 275.929688 56.539062 C 276.394531 55.75 276.8125 54.933594 277.21875 54.042969 C 277.625 53.15625 278.085938 52.050781 285.085938 32.890625 C 292.085938 13.726562 292.207031 13.402344 292.308594 13.148438 C 292.410156 12.898438 292.351562 12.949219 291.878906 13.390625 C 291.40625 13.832031 290.023438 14.558594 288.328125 14.667969 C 286.632812 14.773438 286.085938 14.582031 285.300781 14.097656 C 284.515625 13.617188 284.1875 13.273438 284.113281 13.148438 C 284.035156 13.023438 284.101562 13.105469 284.226562 13.316406 C 284.351562 13.523438 287.679688 20.914062 290.515625 27.171875 C 293.355469 33.433594 295.703125 38.546875 297.550781 42.527344 C 299.398438 46.507812 300.765625 49.367188 301.695312 51.140625 C 302.625 52.910156 303.710938 54.800781 304.761719 56.46875 C 305.816406 58.140625 306.839844 59.574219 307.878906 60.792969 C 308.921875 62.011719 310.054688 63.046875 311.308594 63.792969 C 312.558594 64.542969 313.78125 64.941406 315.171875 64.789062 C 316.5625 64.636719 317.660156 64.265625 318.519531 63.757812 C 319.378906 63.25 320.097656 62.667969 320.75 62.023438 C 321.402344 61.375 326.183594 56.183594 330.308594 51.710938 C 334.433594 47.242188 337.933594 43.503906 340.773438 40.472656 C 343.613281 37.4375 345.824219 35.144531 347.378906 33.558594 C 348.929688 31.976562 349.535156 31.367188 349.945312 30.980469 C 350.355469 30.597656 350.566406 30.429688 350.351562 30.578125 C 350.132812 30.726562 348.582031 31.257812 345.464844 27.398438 C 342.347656 23.542969 338.074219 33.332031 334.511719 42.425781 C 330.953125 51.523438 328.207031 59.839844 326.328125 67.414062 C 324.453125 74.988281 323.40625 81.816406 323.175781 87.714844 C 322.941406 93.609375 325.335938 88.421875 327.171875 87.628906 C 329.011719 86.832031 329.3125 86.832031 329.042969 86.808594 C 328.777344 86.789062 328.152344 86.703125 327.433594 86.585938 C 326.710938 86.464844 323.460938 85.628906 320.132812 84.828125 C 316.804688 84.027344 313.558594 83.296875 310.386719 82.648438 C 307.214844 81.996094 304.121094 81.433594 301.117188 80.957031 C 298.113281 80.480469 296.046875 80.179688 293.902344 79.921875 C 291.757812 79.660156 289.558594 79.429688 287.300781 79.238281 C 285.046875 79.042969 282.734375 78.875 280.324219 78.734375 C 277.910156 78.59375 273.078125 78.523438 268.292969 78.644531 C 263.507812 78.765625 258.792969 79.109375 254.148438 79.660156 C 249.507812 80.210938 244.941406 80.984375 242.667969 81.535156 C 238.207031 82.5 241.816406 89.679688 239.625 90.089844 Z M 239.625 90.089844 " fill-opacity="1" fill-rule="nonzero"/></g></g></g><g fill="#1e1e1e" fill-opacity="1"><g transform="translate(16.59082, 259.246568)"><g><path d="M 180.71875 -210.96875 L 183.109375 -0.53125 L 127.375 -1.859375 L 123.140625 -121.8125 L 93.671875 -77.75 L 66.078125 -120.21875 L 61.828125 -2.65625 L 5.3125 -0.53125 L 8.234375 -212.828125 L 64.21875 -212.03125 L 93.671875 -164.265625 L 122.078125 -211.765625 Z M 180.71875 -210.96875 "/></g></g></g><g fill="#1e1e1e" fill-opacity="1"><g transform="translate(167.430682, 373.804973)"><g><path d="M 157.859375 -198.140625 L 74.671875 -199.453125 L 74.671875 -165.390625 L 127.734375 -162.453125 L 127.734375 -105.453125 L 74.34375 -108.734375 L 73.6875 -3.28125 L 6.546875 0 L 6.546875 -262.34375 L 159.5 -257.421875 Z M 157.859375 -198.140625 "/></g></g></g></svg>